<svg id="Capa_1" enable-background="new 0 0 512 512" height="512" viewBox="0 0 512 512" width="512" xmlns="http://www.w3.org/2000/svg" xmlns:xlink="http://www.w3.org/1999/xlink"><linearGradient id="SVGID_1_" gradientUnits="userSpaceOnUse" x1="256" x2="256" y1="512" y2="0"><stop offset="0" stop-color="#ffe59a"/><stop offset="1" stop-color="#ffffd5"/></linearGradient><linearGradient id="SVGID_2_" gradientUnits="userSpaceOnUse" x1="256" x2="256" y1="105" y2="407"><stop offset="0" stop-color="#fd5900"/><stop offset="1" stop-color="#ffde00"/></linearGradient><g><circle cx="256" cy="256" fill="url(#SVGID_1_)" r="256"/><g><g><path d="m380.348 238.242h-44.41v-10.053c0-3.279-1.804-6.289-4.693-7.833-2.871-1.535-6.401-1.37-9.116.442l-37.28 27.817c-2.472 1.648-3.955 4.424-3.955 7.39s1.483 5.742 3.955 7.39l37.28 27.817c2.754 1.836 6.268 1.97 9.116.442 2.888-1.544 4.693-4.554 4.693-7.833v-10.051h44.41c4.909 0 8.882-3.973 8.882-8.882v-17.764c0-4.909-3.973-8.882-8.882-8.882zm-106.124 39.388c-6.661-4.406-11.094-12.698-11.094-21.624s4.432-17.218 11.866-22.17l36.508-27.271c2.222-1.498 4.442-2.479 6.67-3.29v-53.854c0-4.909-3.973-8.882-8.882-8.882h-62.174v230.932h62.174c4.909 0 8.882-3.973 8.882-8.882v-53.808c-2.046-.729-4.065-1.563-5.898-2.789zm-48.556-170.944c-2.333-1.665-5.308-2.151-8.006-1.214l-88.82 35.528c-3.626 1.206-6.072 4.597-6.072 8.422v213.168c0 3.825 2.446 7.217 6.072 8.422l88.82 35.528c2.585.878 5.599.512 8.006-1.214 2.316-1.674 3.686-4.354 3.686-7.208v-284.224c0-2.854-1.37-5.534-3.686-7.208zm-22.96 158.202c-4.905 0-8.882-3.977-8.882-8.882 0-4.906 3.977-8.882 8.882-8.882s8.882 3.976 8.882 8.882c0 4.905-3.977 8.882-8.882 8.882z" fill="url(#SVGID_2_)"/></g></g></g></svg>