<?xml version="1.0" encoding="iso-8859-1"?>
<!-- Generator: Adobe Illustrator 19.0.0, SVG Export Plug-In . SVG Version: 6.00 Build 0)  -->
<svg version="1.1" id="Capa_1" xmlns="http://www.w3.org/2000/svg" xmlns:xlink="http://www.w3.org/1999/xlink" x="0px" y="0px"
	 viewBox="0 0 512 512" style="enable-background:new 0 0 512 512;" xml:space="preserve">
<path style="fill:#FFDB2D;" d="M250.363,336.801l20.225,10.744l-14.535,23.595L235.407,358.5l0.632,22.541h-28.23l0.632-22.541
	l-20.646,12.641l-14.326-23.595l20.224-10.744l-20.224-10.744l14.326-23.595l20.646,12.641l-0.632-22.541h28.23l-0.632,22.541
	l20.646-12.641l14.535,23.595L250.363,336.801z"/>
<polygon style="fill:#F2C200;" points="270.587,326.056 256.052,302.462 235.406,315.102 236.038,292.561 222.275,292.561 
	222.275,381.041 236.038,381.041 235.406,358.499 256.052,371.14 270.587,347.545 250.363,336.801 "/>
<path style="fill:#FFDB2D;" d="M371.069,336.801l20.224,10.744l-14.535,23.595L356.112,358.5l0.632,22.541h-28.23l0.632-22.541
	L308.5,371.14l-14.326-23.595l20.224-10.744l-20.224-10.744l14.326-23.595l20.646,12.641l-0.632-22.541h28.23l-0.632,22.541
	l20.646-12.641l14.535,23.595L371.069,336.801z"/>
<polygon style="fill:#F2C200;" points="391.293,326.056 376.758,302.462 356.112,315.102 356.744,292.561 342.981,292.561 
	342.981,381.041 356.744,381.041 356.112,358.499 376.758,371.14 391.293,347.545 371.069,336.801 "/>
<path style="fill:#FFDB2D;" d="M491.775,336.801L512,347.545l-14.535,23.595L476.819,358.5l0.632,22.541h-28.23l0.632-22.541
	l-20.646,12.641l-14.326-23.595l20.224-10.744l-20.224-10.744l14.326-23.595l20.646,12.641l-0.632-22.541h28.23l-0.632,22.541
	l20.646-12.641L512,326.057L491.775,336.801z"/>
<polygon style="fill:#F2C200;" points="512,326.056 497.464,302.462 476.818,315.102 477.45,292.561 463.687,292.561 
	463.687,381.041 477.45,381.041 476.818,358.499 497.464,371.14 512,347.545 491.775,336.801 "/>
<g>
	<rect x="174.647" y="407.75" style="fill:#EEEEEE;" width="336.171" height="30.075"/>
	<rect x="174.647" y="213.193" style="fill:#EEEEEE;" width="336.171" height="30.075"/>
</g>
<path style="fill:#FFDB2D;" d="M51.917,371.586v-43.444c0-11.424,9.294-20.717,20.718-20.717s20.717,9.293,20.717,20.717v43.444
	h30.075v-43.444c0-28.007-22.786-50.792-50.792-50.792s-50.792,22.785-50.792,50.792v43.444H51.917z"/>
<path style="fill:#F2C200;" d="M73.569,277.375v30.098c10.988,0.494,19.783,9.562,19.783,20.67v43.444h30.075v-43.444
	C123.427,300.449,101.145,277.877,73.569,277.375z"/>
<rect x="2.41" y="348.02" style="fill:#00C47A;" width="140.451" height="89.795"/>
<rect x="73.574" y="348.02" style="fill:#00935C;" width="69.293" height="89.795"/>
<path style="fill:#4BBAED;" d="M143.025,200.044c-4.839-17.919-16.188-32.781-31.072-42.324c7.317-8.835,11.72-20.165,11.72-32.505
	c0-28.143-22.896-51.04-51.04-51.04s-51.04,22.896-51.04,51.04c0,12.341,4.404,23.671,11.72,32.505
	c-14.885,9.543-26.233,24.405-31.073,42.324L0,208.351l34.239,34.914h76.791l34.239-34.914L143.025,200.044z"/>
<path style="fill:#388CB2;" d="M143.025,200.044c-4.839-17.919-16.188-32.781-31.072-42.324c7.317-8.835,11.72-20.165,11.72-32.505
	c0-27.83-22.393-50.513-50.104-51.016v169.066h37.461l34.239-34.914L143.025,200.044z"/>
<g>
	<rect x="340.903" y="213.193" style="fill:#D0CFD2;" width="169.915" height="30.075"/>
	<rect x="340.903" y="407.75" style="fill:#D0CFD2;" width="169.915" height="30.075"/>
</g>
<path style="fill:#FFDB2D;" d="M250.363,142.243l20.225,10.744l-14.535,23.595l-20.646-12.641l0.632,22.541h-28.23l0.632-22.541
	l-20.646,12.641l-14.326-23.595l20.224-10.744L173.469,131.5l14.326-23.595l20.646,12.641l-0.632-22.541h28.23l-0.632,22.541
	l20.646-12.641l14.535,23.595L250.363,142.243z"/>
<polygon style="fill:#F2C200;" points="270.587,131.499 256.052,107.903 235.406,120.544 236.038,98.003 222.275,98.003 
	222.275,186.483 236.038,186.483 235.406,163.942 256.052,176.582 270.587,152.987 250.363,142.243 "/>
<path style="fill:#FFDB2D;" d="M371.069,142.243l20.224,10.744l-14.535,23.595l-20.646-12.641l0.632,22.541h-28.23l0.632-22.541
	L308.5,176.582l-14.326-23.595l20.224-10.744L294.174,131.5l14.326-23.595l20.646,12.641l-0.632-22.541h28.23l-0.632,22.541
	l20.646-12.641l14.535,23.595L371.069,142.243z"/>
<polygon style="fill:#F2C200;" points="391.293,131.499 376.758,107.903 356.112,120.544 356.744,98.003 342.981,98.003 
	342.981,186.483 356.744,186.483 356.112,163.942 376.758,176.582 391.293,152.987 371.069,142.243 "/>
<path style="fill:#FFDB2D;" d="M491.775,142.243L512,152.987l-14.535,23.595l-20.646-12.641l0.632,22.541h-28.23l0.632-22.541
	l-20.646,12.641l-14.326-23.595l20.224-10.744L414.881,131.5l14.326-23.595l20.646,12.641l-0.632-22.541h28.23l-0.632,22.541
	l20.646-12.641L512,131.5L491.775,142.243z"/>
<polygon style="fill:#F2C200;" points="512,131.499 497.464,107.903 476.818,120.544 477.45,98.003 463.687,98.003 463.687,186.483 
	477.45,186.483 476.818,163.942 497.464,176.582 512,152.987 491.775,142.243 "/>
<g>
</g>
<g>
</g>
<g>
</g>
<g>
</g>
<g>
</g>
<g>
</g>
<g>
</g>
<g>
</g>
<g>
</g>
<g>
</g>
<g>
</g>
<g>
</g>
<g>
</g>
<g>
</g>
<g>
</g>
</svg>
