<svg height="512" viewBox="0 0 512 512" width="512" xmlns="http://www.w3.org/2000/svg"><g id="Filled_outline" data-name="Filled outline"><path d="m120 72h320a32 32 0 0 1 32 32v248a24 24 0 0 1 -24 24h-336a24 24 0 0 1 -24-24v-248a32 32 0 0 1 32-32z" fill="#4db7e5"/><path d="m440 72h-8v304h16v-302.992a32.066 32.066 0 0 0 -8-1.008z" fill="#48add9"/><path d="m400 24h-240a32 32 0 0 0 -32 32v336h304v-336a32 32 0 0 0 -32-32z" fill="#348fd9"/><path d="m432 100-292 292h292z" fill="#3086cd"/><path d="m384 224q0 4.035-.3 8a103.866 103.866 0 0 1 -89.22 94.99c-2.14.31-4.3.54-6.48.71q-3.96.3-8 .3t-8-.3c-2.18-.17-4.34-.4-6.48-.71a102.673 102.673 0 0 1 -24.22-6.43 103.993 103.993 0 0 1 -65-88.56q-.3-3.96-.3-8t.3-8a103.683 103.683 0 0 1 21.72-56 104.3 104.3 0 0 1 43.3-32.57 102.991 102.991 0 0 1 23.07-6.26q3.765-.57 7.61-.87 3.96-.3 8-.3t8 .3c2.18.17 4.34.4 6.48.71a102.625 102.625 0 0 1 24.2 6.42 104.352 104.352 0 0 1 53.6 48.57 103.167 103.167 0 0 1 11.42 40q.3 3.96.3 8z" fill="#4db7e5"/><path d="m383.7 232q.3-3.96.3-8t-.3-8h-39.85a203.479 203.479 0 0 0 -5.48-40h33.91a103.39 103.39 0 0 0 -10.3-16h-28.24a164.522 164.522 0 0 0 -15.06-32.57 102.625 102.625 0 0 0 -24.2-6.42l5.58 7.2a140.136 140.136 0 0 1 16.69 31.79h-28.75v-39.7q-3.96-.3-8-.3t-8 .3v39.7h-28.75a139.619 139.619 0 0 1 16.78-31.91c.1-.13.18-.27.27-.4l4.09-6.52a102.991 102.991 0 0 0 -23.07 6.26 164 164 0 0 0 -15.06 32.57h-28.24a103.39 103.39 0 0 0 -10.3 16h33.91a203.273 203.273 0 0 0 -5.48 40h-39.85q-.3 3.96-.3 8t.3 8h39.86a200.472 200.472 0 0 0 7.64 48h-31.46a104.41 104.41 0 0 0 12.62 16h24.26a155.639 155.639 0 0 0 12.08 24.56 102.673 102.673 0 0 0 24.22 6.43l-5.58-7.21a132.481 132.481 0 0 1 -13.41-23.78h25.47v31.7q3.96.3 8 .3t8-.3v-31.7h25.47a131.953 131.953 0 0 1 -13.41 23.78l-5.58 7.21a102.673 102.673 0 0 0 24.22-6.43 154.767 154.767 0 0 0 12.08-24.56h24.26a104.41 104.41 0 0 0 12.62-16h-31.46a200.792 200.792 0 0 0 7.64-48zm-111.7 48h-31.47a182.9 182.9 0 0 1 -8.36-48h39.83zm0-64h-39.84a185.906 185.906 0 0 1 5.97-40h33.87zm47.47 64h-31.47v-48h39.83a183.261 183.261 0 0 1 -8.36 48zm-31.47-64v-40h33.87a186.186 186.186 0 0 1 5.97 40z" fill="#60d1e0"/><path d="m332.686 368a27.313 27.313 0 0 1 -19.313 8h-65.373a27.317 27.317 0 0 1 -19.314-8 27.313 27.313 0 0 0 -19.313-8h-137.373v24a24 24 0 0 0 24 24h368a24 24 0 0 0 24-24v-24h-136a27.317 27.317 0 0 0 -19.314 8z" fill="#e0e0de"/><path d="m456 360v24a24 24 0 0 1 -24 24h32a24 24 0 0 0 24-24v-24z" fill="#d6d6d4"/><path d="m248 370v100a17.778 17.778 0 0 1 -2.46 9.07 17.967 17.967 0 0 1 -15.54 8.93h-188a17.967 17.967 0 0 1 -15.54-8.93 17.778 17.778 0 0 1 -2.46-9.07v-100a17.778 17.778 0 0 1 2.46-9.07 17.967 17.967 0 0 1 15.54-8.93h188a17.967 17.967 0 0 1 15.54 8.93 17.778 17.778 0 0 1 2.46 9.07z" fill="#ffb531"/><path d="m245.54 360.93c-24.77 13.79-64.61 22.74-109.54 22.74s-84.77-8.95-109.54-22.74a17.967 17.967 0 0 1 15.54-8.93h188a17.967 17.967 0 0 1 15.54 8.93z" fill="#ffcb73"/><path d="m245.54 479.07a17.967 17.967 0 0 1 -15.54 8.93h-188a17.967 17.967 0 0 1 -15.54-8.93c24.77-13.79 64.61-22.74 109.54-22.74s84.77 8.95 109.54 22.74z" fill="#ffa912"/><path d="m136 216a88 88 0 0 0 -88 88v48h32v-48a56 56 0 0 1 112 0v48h32v-48a88 88 0 0 0 -88-88z" fill="#e0e0de"/><path d="m160 416a24 24 0 1 0 -32 22.525v17.475h16v-17.474a23.96 23.96 0 0 0 16-22.526z" fill="#95573a"/><path d="m488 352h-8v-248a40.045 40.045 0 0 0 -40-40v-8a40.045 40.045 0 0 0 -40-40h-240a40.045 40.045 0 0 0 -40 40v8a40.045 40.045 0 0 0 -40 40v96h16v-96a24.027 24.027 0 0 1 24-24v112h16v-136a24.027 24.027 0 0 1 24-24h240a24.027 24.027 0 0 1 24 24v272h16v-248a24.027 24.027 0 0 1 24 24v248h-112a35.038 35.038 0 0 0 -24.937 10.343 19.24 19.24 0 0 1 -13.703 5.657h-41.36v16h41.36a35.137 35.137 0 0 0 25.017-10.343 19.147 19.147 0 0 1 13.623-5.657h128v16a16.019 16.019 0 0 1 -16 16h-192v16h192a32.036 32.036 0 0 0 32-32v-24a8 8 0 0 0 -8-8z"/><path d="m120 272h16v56h-16z"/><path d="m159.995 48h16v16h-16z"/><path d="m191.995 48h16v16h-16z"/><path d="m223.995 48h16v16h-16z"/><path d="m160 80h240v16h-240z"/><path d="m255.517 316.813c-1.692-.436-3.4-.929-5.072-1.467l-4.892 15.234c1.969.632 3.978 1.213 5.924 1.715a111.9 111.9 0 0 0 116.731-39.35 111.981 111.981 0 0 0 -59.685-177.24 111.949 111.949 0 0 0 -122.85 47.965 110.594 110.594 0 0 0 -14.673 34.488l15.57 3.683a94.551 94.551 0 0 1 10.317-25.841h24.745a204.381 204.381 0 0 0 -5.632 48c0 5.54.223 11.137.663 16.638l15.949-1.276c-.195-2.438-.341-4.9-.443-7.362h39.831v48h-24v16h24v23.642a95.8 95.8 0 0 1 -16.483-2.829zm87.903-20.813a96.379 96.379 0 0 1 -18.209 12.647c2.011-4.093 3.881-8.3 5.566-12.647zm14.513-16h-21.743a201.2 201.2 0 0 0 7.649-48h31.837a94.311 94.311 0 0 1 -17.743 48zm-99.523-149.528a95.56 95.56 0 0 1 13.59-2.114v31.642h-28.727a141.467 141.467 0 0 1 15.137-29.528zm29.59-2.113a95.738 95.738 0 0 1 13.59 2.114 141.448 141.448 0 0 1 15.138 29.527h-28.728zm33.861 47.641a186.068 186.068 0 0 1 5.97 40h-39.831v-40zm53.8 40h-31.81a203 203 0 0 0 -5.479-40h24.738a95.089 95.089 0 0 1 12.546 40zm-24.144-56h-17.788a171.889 171.889 0 0 0 -8.589-20.763 95.11 95.11 0 0 1 26.372 20.763zm-116.657-20.762a171.887 171.887 0 0 0 -8.588 20.762h-17.787a95.1 95.1 0 0 1 26.375-20.762zm-2.691 76.762a186 186 0 0 1 5.969-40h33.862v40zm55.831 16h39.833a183.246 183.246 0 0 1 -8.373 48h-31.46zm25.452 64a133.414 133.414 0 0 1 -11.842 21.523 95.42 95.42 0 0 1 -13.61 2.12v-23.643z"/><path d="m232 344.159v-40.159a96 96 0 0 0 -192 0v40.159a26.938 26.938 0 0 0 -24 26.741v98.2a26.932 26.932 0 0 0 26.9 26.9h186.2a26.932 26.932 0 0 0 26.9-26.9v-98.2a26.938 26.938 0 0 0 -24-26.741zm-96-120.159a80.091 80.091 0 0 1 80 80v40h-16v-40a64 64 0 0 0 -128 0v40h-16v-40a80.091 80.091 0 0 1 80-80zm48 120h-96v-40a48 48 0 0 1 96 0zm56 125.1a10.913 10.913 0 0 1 -10.9 10.9h-186.2a10.913 10.913 0 0 1 -10.9-10.9v-98.2a10.913 10.913 0 0 1 10.9-10.9h186.2a10.913 10.913 0 0 1 10.9 10.9z"/><path d="m136 392a24 24 0 0 0 -8 46.624v17.376h16v-17.376a24 24 0 0 0 -8-46.624zm0 32a8 8 0 1 1 8-8 8.009 8.009 0 0 1 -8 8z"/></g></svg>