<svg id="Layer_1" enable-background="new 0 0 256 256" height="512" viewBox="0 0 256 256" width="512" xmlns="http://www.w3.org/2000/svg"><g><path d="m241.4 205.9h-226.8c-6.7 0-12.1-5.4-12.1-12.1v-150c0-6.7 5.4-12.1 12.1-12.1h226.7c6.7 0 12.1 5.4 12.1 12.1v150c.1 6.6-5.3 12-12 12.1z" fill="#3a70bf"/><path d="m161.3 235.4h-66.6c-3.3 0-5.9 2.7-5.8 6 0 3.2 2.6 5.8 5.8 5.8h66.5c3.3 0 5.9-2.7 5.8-6 0-3.2-2.5-5.8-5.7-5.8z" fill="#edf4fc"/><path d="m102.3 208.9h51.5v29.5h-51.5z" fill="#c7d7e5"/><path d="m2.5 181.7v12c0 6.7 5.4 12.1 12.1 12.1h226.7c6.7 0 12.1-5.4 12.1-12.1v-12z" fill="#edf4fc"/><path d="m242.8 181.7v-138c0-.8-.6-1.4-1.4-1.4h-226.8c-.8 0-1.4.6-1.4 1.4v138z" fill="#9be5f9"/><path d="m98.1 92.9h59.7c4.8 0 8.8 3.9 8.8 8.8v49.3c0 4.8-3.9 8.8-8.8 8.8h-59.7c-4.8 0-8.8-3.9-8.8-8.8v-49.3c.1-4.8 4-8.8 8.8-8.8z" fill="#fcdd86"/><path d="m110.1 92.9v-11.7c0-9.9 8.1-17.9 18-17.9s17.9 8 17.9 17.9v11.8h10.3v-11.8c0-15.6-12.7-28.2-28.3-28.2s-28.2 12.6-28.2 28.2v11.8z" fill="#c7d7e5"/><path d="m89.4 102.8h77.3v47h-77.3z" fill="#f5c84c"/><path d="m135.5 136.7-3.7-8.6c-.4-.9-.1-1.9.7-2.5 3.3-2.5 3.9-7.1 1.4-10.4s-7.1-3.9-10.4-1.4-3.9 7.1-1.4 10.4c.4.5.9 1 1.4 1.4.8.6 1 1.6.6 2.5l-3.7 8.6c-.5 1.2 0 2.5 1.2 3 .3.1.6.2.9.2h10.7c1.3 0 2.3-1 2.3-2.3.2-.3.1-.6 0-.9z" fill="#3a70bf"/><path d="m13.2 170.8h229.5v10.9h-229.5z" fill="#3caadc"/><path d="m13.2 170.8h22.3v10.9h-22.3z" fill="#f5c84c"/><path d="m101.1 11.2h-2.1v-2c0-1.5-1.3-2.8-2.8-2.8s-2.8 1.3-2.8 2.8v2.1h-2.1c-1.5 0-2.8 1.3-2.8 2.8s1.3 2.8 2.8 2.8h2.1v2.1c0 1.5 1.3 2.8 2.8 2.8s2.8-1.3 2.8-2.8v-2.1h2.1c1.5 0 2.8-1.3 2.8-2.8 0-1.6-1.2-2.9-2.8-2.9z" fill="#ef4460"/><path d="m202.7 235.2c-4-.7-7.1-3.8-7.9-7.7 0-.1-.1-.2-.2-.1-.1 0-.1.1-.1.1-.8 4-3.9 7-7.9 7.7-.1 0-.2.1-.1.2 0 .1.1.1.1.1 4 .7 7.1 3.8 7.9 7.7 0 .1.1.2.2.1.1 0 .1-.1.1-.1.8-4 3.9-7 7.9-7.7.1 0 .2-.1.1-.2.1 0 0 0-.1-.1z" fill="#f5c84c"/><circle cx="141" cy="9.3" fill="#70d6f9" r="3"/><circle cx="72" cy="227" fill="#5290db" r="3"/><circle cx="178" cy="220.3" fill="#b2e26d" r="3"/><path d="m241.4 29h-226.8c-8 .1-14.6 6.6-14.6 14.7v150c0 8.1 6.6 14.6 14.6 14.6h85.1v24.5h-5c-4.6 0-8.4 3.8-8.4 8.4s3.8 8.4 8.4 8.4h66.5c4.6 0 8.4-3.8 8.4-8.4s-3.8-8.4-8.4-8.4h-5v-24.5h85.1c8.1 0 14.6-6.6 14.6-14.6v-150c.1-8.1-6.5-14.6-14.5-14.7zm-80.1 208.9c1.9 0 3.4 1.5 3.4 3.4s-1.5 3.4-3.4 3.4h-66.6c-1.9 0-3.4-1.5-3.4-3.4s1.5-3.4 3.4-3.4zm-56.5-5v-24.5h46.5v24.5zm146.2-39.2c0 5.3-4.3 9.6-9.6 9.6h-226.8c-5.3 0-9.6-4.3-9.6-9.6v-9.5h246zm-235.3-25.3v-123.6h224.5v123.6zm224.6 5v5.9h-202.3v-5.9zm-207.3 0v5.9h-17.3v-5.9zm218 5.8h-5.7v-135.5c0-2.2-1.7-3.9-3.9-3.9h-226.8c-2.2 0-3.9 1.7-3.9 3.9v135.5h-5.7v-135.5c0-5.3 4.3-9.6 9.6-9.6h226.7c5.3 0 9.6 4.3 9.6 9.6v135.5z"/><path d="m130.9 191h-5.7c-1.4 0-2.5 1.1-2.5 2.5s1.1 2.5 2.5 2.5h5.7c1.4 0 2.5-1.1 2.5-2.5s-1.2-2.5-2.5-2.5z"/><path d="m158.7 90.5v-9.3c0-17-13.8-30.7-30.8-30.7s-30.7 13.8-30.7 30.7v9.3c-5.9.5-10.4 5.4-10.4 11.2v49.3c0 6.2 5.1 11.3 11.3 11.3h59.7c6.2 0 11.3-5.1 11.3-11.3v-49.3c0-5.9-4.5-10.7-10.4-11.2zm-56.4-9.3c0-14.2 11.5-25.7 25.8-25.7 14.2 0 25.7 11.5 25.7 25.7v9.3h-5.3v-9.3c0-11.3-9.2-20.4-20.4-20.4s-20.4 9.2-20.4 20.4v9.3h-5.3zm41.1 0v9.3h-30.9v-9.3c0-8.5 6.9-15.4 15.4-15.4s15.5 6.8 15.5 15.4zm-45.3 14.2h59.7c2.9 0 5.5 2 6.1 4.9h-71.9c.7-2.8 3.2-4.9 6.1-4.9zm59.8 61.9h-59.8c-2.9 0-5.5-2.1-6.1-4.9h72c-.6 2.8-3.2 4.9-6.1 4.9zm6.2-10h-72.2v-42h72.3z"/><path d="m118.6 140.3c.9 1.4 2.4 2.2 4 2.2h10.7c2.7 0 4.8-2.2 4.8-4.8 0-.7-.1-1.3-.4-1.9l-3.6-8.3c2.7-2.2 4.1-5.6 3.6-9-.7-5.4-5.7-9.2-11.1-8.5-4.9.7-8.6 4.9-8.6 9.8 0 3 1.3 5.8 3.7 7.7l-3.6 8.3c-.5 1.4-.4 3.1.5 4.5zm6.4-16.7c-1.2-.9-2-2.4-2-3.9 0-2.7 2.2-4.9 4.9-4.9h.6c2.2.3 4 2 4.3 4.2.2 1.8-.5 3.5-1.9 4.6-1.7 1.3-2.3 3.5-1.4 5.5l3.6 8.3h-10.2l3.6-8.3c.8-2 .2-4.2-1.5-5.5z"/></g></svg>